<mxfile host="app.diagrams.net" modified="2023-07-27T13:15:47.597Z" agent="Mozilla/5.0 (Windows NT 10.0; Win64; x64) AppleWebKit/537.36 (KHTML, like Gecko) Chrome/115.0.0.0 Safari/537.36" etag="gwFj-DtjYZdtlEyWtlde" version="21.6.5" type="device" pages="4">
  <diagram name="1.0-exercicio-filmes" id="LNDg6mLLo0ihG5OXBbq_">
    <mxGraphModel dx="910" dy="506" grid="1" gridSize="10" guides="1" tooltips="1" connect="1" arrows="1" fold="1" page="1" pageScale="1" pageWidth="827" pageHeight="1169" math="0" shadow="0">
      <root>
        <mxCell id="0" />
        <mxCell id="1" parent="0" />
        <mxCell id="uSyXQP7LHbHPvzbmijAj-1" value="&lt;div&gt;Você deverá criar a modelagem para o catálogo de filmes, observando a seguinte situação:&lt;/div&gt;&lt;div&gt;&lt;br&gt;&lt;/div&gt;&lt;div&gt;- um filme possui apenas um único gênero.&lt;/div&gt;&lt;div&gt;- um gênero pode definir mais de um filme.&lt;/div&gt;" style="text;html=1;align=center;verticalAlign=middle;resizable=0;points=[];autosize=1;strokeColor=none;fillColor=none;" parent="1" vertex="1">
          <mxGeometry x="160" y="40" width="510" height="70" as="geometry" />
        </mxCell>
        <mxCell id="FIfhgw2CTLY3sNOpu3BX-4" style="edgeStyle=orthogonalEdgeStyle;rounded=0;orthogonalLoop=1;jettySize=auto;html=1;entryX=0.5;entryY=0;entryDx=0;entryDy=0;endArrow=none;endFill=0;" parent="1" source="FIfhgw2CTLY3sNOpu3BX-1" target="FIfhgw2CTLY3sNOpu3BX-3" edge="1">
          <mxGeometry relative="1" as="geometry" />
        </mxCell>
        <mxCell id="FIfhgw2CTLY3sNOpu3BX-1" value="&lt;font style=&quot;font-size: 14px;&quot;&gt;Filme&lt;/font&gt;" style="rounded=0;whiteSpace=wrap;html=1;" parent="1" vertex="1">
          <mxGeometry x="360" y="160" width="120" height="60" as="geometry" />
        </mxCell>
        <mxCell id="FIfhgw2CTLY3sNOpu3BX-5" style="edgeStyle=orthogonalEdgeStyle;rounded=0;orthogonalLoop=1;jettySize=auto;html=1;endArrow=none;endFill=0;" parent="1" source="FIfhgw2CTLY3sNOpu3BX-2" target="FIfhgw2CTLY3sNOpu3BX-3" edge="1">
          <mxGeometry relative="1" as="geometry" />
        </mxCell>
        <mxCell id="FIfhgw2CTLY3sNOpu3BX-2" value="&lt;font style=&quot;font-size: 14px;&quot;&gt;Genero&lt;/font&gt;" style="rounded=0;whiteSpace=wrap;html=1;" parent="1" vertex="1">
          <mxGeometry x="360" y="380" width="120" height="60" as="geometry" />
        </mxCell>
        <mxCell id="FIfhgw2CTLY3sNOpu3BX-3" value="&lt;font style=&quot;font-size: 14px;&quot;&gt;Possui&lt;/font&gt;" style="rhombus;whiteSpace=wrap;html=1;" parent="1" vertex="1">
          <mxGeometry x="380" y="260" width="80" height="80" as="geometry" />
        </mxCell>
        <mxCell id="FIfhgw2CTLY3sNOpu3BX-6" value="&lt;font style=&quot;font-size: 14px;&quot;&gt;N&lt;/font&gt;" style="text;html=1;align=center;verticalAlign=middle;resizable=0;points=[];autosize=1;strokeColor=none;fillColor=none;" parent="1" vertex="1">
          <mxGeometry x="414" y="220" width="30" height="30" as="geometry" />
        </mxCell>
        <mxCell id="FIfhgw2CTLY3sNOpu3BX-7" value="&lt;font style=&quot;font-size: 14px;&quot;&gt;1&lt;/font&gt;" style="text;html=1;align=center;verticalAlign=middle;resizable=0;points=[];autosize=1;strokeColor=none;fillColor=none;" parent="1" vertex="1">
          <mxGeometry x="415" y="348" width="30" height="30" as="geometry" />
        </mxCell>
      </root>
    </mxGraphModel>
  </diagram>
  <diagram id="GEUDkTmfU6hjrtdiMkU7" name="1.1-exercicio-pessoas">
    <mxGraphModel dx="1050" dy="574" grid="1" gridSize="10" guides="1" tooltips="1" connect="1" arrows="1" fold="1" page="1" pageScale="1" pageWidth="827" pageHeight="1169" math="0" shadow="0">
      <root>
        <mxCell id="0" />
        <mxCell id="1" parent="0" />
        <mxCell id="nFpa2nH8nlaL4lHykz79-8" style="edgeStyle=orthogonalEdgeStyle;rounded=0;orthogonalLoop=1;jettySize=auto;html=1;endArrow=none;endFill=0;" edge="1" parent="1" source="-ravSgFt0BRICLOYNoMb-1" target="nFpa2nH8nlaL4lHykz79-7">
          <mxGeometry relative="1" as="geometry" />
        </mxCell>
        <mxCell id="cjSB6NgPFC95SLQ5E6UX-3" style="edgeStyle=orthogonalEdgeStyle;rounded=0;orthogonalLoop=1;jettySize=auto;html=1;endArrow=none;endFill=0;" edge="1" parent="1" source="-ravSgFt0BRICLOYNoMb-1" target="cjSB6NgPFC95SLQ5E6UX-1">
          <mxGeometry relative="1" as="geometry" />
        </mxCell>
        <mxCell id="cjSB6NgPFC95SLQ5E6UX-8" style="edgeStyle=orthogonalEdgeStyle;rounded=0;orthogonalLoop=1;jettySize=auto;html=1;entryX=1;entryY=0.5;entryDx=0;entryDy=0;endArrow=none;endFill=0;" edge="1" parent="1" source="-ravSgFt0BRICLOYNoMb-1" target="cjSB6NgPFC95SLQ5E6UX-5">
          <mxGeometry relative="1" as="geometry" />
        </mxCell>
        <mxCell id="-ravSgFt0BRICLOYNoMb-1" value="&lt;font style=&quot;font-size: 14px;&quot;&gt;Pessoa&lt;/font&gt;" style="rounded=0;whiteSpace=wrap;html=1;" vertex="1" parent="1">
          <mxGeometry x="360" y="400" width="120" height="60" as="geometry" />
        </mxCell>
        <mxCell id="-ravSgFt0BRICLOYNoMb-2" value="&lt;div&gt;Construa a modelagem que represente pessoas e seus dados, observando que:&lt;/div&gt;&lt;div&gt;&lt;br&gt;&lt;/div&gt;&lt;div&gt;- uma pessoa pode ter vários telefones e vários emails, porém, pode possuir somente uma CNH.&lt;/div&gt;" style="text;html=1;align=center;verticalAlign=middle;resizable=0;points=[];autosize=1;strokeColor=none;fillColor=none;" vertex="1" parent="1">
          <mxGeometry x="150" y="80" width="540" height="60" as="geometry" />
        </mxCell>
        <mxCell id="cjSB6NgPFC95SLQ5E6UX-2" style="edgeStyle=orthogonalEdgeStyle;rounded=0;orthogonalLoop=1;jettySize=auto;html=1;entryX=0.5;entryY=0;entryDx=0;entryDy=0;endArrow=none;endFill=0;" edge="1" parent="1" source="jaz4zD7k6-I6z6VpH1bu-1" target="cjSB6NgPFC95SLQ5E6UX-1">
          <mxGeometry relative="1" as="geometry" />
        </mxCell>
        <mxCell id="jaz4zD7k6-I6z6VpH1bu-1" value="&lt;font style=&quot;font-size: 14px;&quot;&gt;Telefone&lt;/font&gt;" style="rounded=0;whiteSpace=wrap;html=1;" vertex="1" parent="1">
          <mxGeometry x="360" y="170" width="120" height="60" as="geometry" />
        </mxCell>
        <mxCell id="cjSB6NgPFC95SLQ5E6UX-7" style="edgeStyle=orthogonalEdgeStyle;rounded=0;orthogonalLoop=1;jettySize=auto;html=1;entryX=0;entryY=0.5;entryDx=0;entryDy=0;endArrow=none;endFill=0;" edge="1" parent="1" source="jaz4zD7k6-I6z6VpH1bu-5" target="cjSB6NgPFC95SLQ5E6UX-5">
          <mxGeometry relative="1" as="geometry" />
        </mxCell>
        <mxCell id="jaz4zD7k6-I6z6VpH1bu-5" value="Email" style="rounded=0;whiteSpace=wrap;html=1;" vertex="1" parent="1">
          <mxGeometry x="40" y="400" width="120" height="60" as="geometry" />
        </mxCell>
        <mxCell id="nFpa2nH8nlaL4lHykz79-3" value="&lt;font style=&quot;font-size: 14px;&quot;&gt;1&lt;/font&gt;" style="text;html=1;align=center;verticalAlign=middle;resizable=0;points=[];autosize=1;strokeColor=none;fillColor=none;" vertex="1" parent="1">
          <mxGeometry x="330" y="430" width="30" height="30" as="geometry" />
        </mxCell>
        <mxCell id="nFpa2nH8nlaL4lHykz79-4" value="&lt;font size=&quot;3&quot;&gt;N&lt;/font&gt;" style="text;html=1;align=center;verticalAlign=middle;resizable=0;points=[];autosize=1;strokeColor=none;fillColor=none;" vertex="1" parent="1">
          <mxGeometry x="414" y="230" width="40" height="30" as="geometry" />
        </mxCell>
        <mxCell id="nFpa2nH8nlaL4lHykz79-7" value="CNH" style="ellipse;whiteSpace=wrap;html=1;" vertex="1" parent="1">
          <mxGeometry x="550" y="405" width="120" height="50" as="geometry" />
        </mxCell>
        <mxCell id="cjSB6NgPFC95SLQ5E6UX-1" value="&lt;font style=&quot;font-size: 14px;&quot;&gt;Possui&lt;/font&gt;" style="rhombus;whiteSpace=wrap;html=1;" vertex="1" parent="1">
          <mxGeometry x="385" y="280" width="70" height="70" as="geometry" />
        </mxCell>
        <mxCell id="cjSB6NgPFC95SLQ5E6UX-4" value="&lt;font style=&quot;font-size: 14px;&quot;&gt;1&lt;/font&gt;" style="text;html=1;align=center;verticalAlign=middle;resizable=0;points=[];autosize=1;strokeColor=none;fillColor=none;" vertex="1" parent="1">
          <mxGeometry x="414" y="370" width="30" height="30" as="geometry" />
        </mxCell>
        <mxCell id="cjSB6NgPFC95SLQ5E6UX-5" value="&lt;font style=&quot;font-size: 14px;&quot;&gt;Possui&lt;/font&gt;" style="rhombus;whiteSpace=wrap;html=1;" vertex="1" parent="1">
          <mxGeometry x="220" y="395" width="70" height="70" as="geometry" />
        </mxCell>
        <mxCell id="cjSB6NgPFC95SLQ5E6UX-9" value="&lt;font style=&quot;font-size: 14px;&quot;&gt;N&lt;/font&gt;" style="text;html=1;align=center;verticalAlign=middle;resizable=0;points=[];autosize=1;strokeColor=none;fillColor=none;" vertex="1" parent="1">
          <mxGeometry x="160" y="430" width="30" height="30" as="geometry" />
        </mxCell>
      </root>
    </mxGraphModel>
  </diagram>
  <diagram id="GRvlRMJcGJTf6KtmZsWK" name="1.2-exercicio-locadora">
    <mxGraphModel dx="2275" dy="1265" grid="1" gridSize="10" guides="1" tooltips="1" connect="1" arrows="1" fold="1" page="1" pageScale="1" pageWidth="827" pageHeight="1169" math="0" shadow="0">
      <root>
        <mxCell id="0" />
        <mxCell id="1" parent="0" />
        <mxCell id="ktSFcYs6yQeCVwq6HfeS-1" value="&lt;div&gt;Construa o Modelo Entidade Relacionamento considerando o seguinte cenário:&lt;/div&gt;&lt;div&gt;&lt;br&gt;&lt;/div&gt;&lt;div&gt;- uma empresa possui vários veículos&lt;/div&gt;&lt;div&gt;- um veículo possui marca(gm, ford, fiat), modelo(onix, fiesta, argo) e placa&lt;/div&gt;&lt;div&gt;- um cliente (cpf, nome) aluga um ou mais veículos&lt;/div&gt;" style="text;html=1;align=center;verticalAlign=middle;resizable=0;points=[];autosize=1;strokeColor=none;fillColor=none;" parent="1" vertex="1">
          <mxGeometry x="189" y="80" width="450" height="90" as="geometry" />
        </mxCell>
        <mxCell id="Isp8MFnUQnU3AqFY6UnY-1" style="edgeStyle=orthogonalEdgeStyle;rounded=0;orthogonalLoop=1;jettySize=auto;html=1;endArrow=none;endFill=0;" edge="1" parent="1" source="Isp8MFnUQnU3AqFY6UnY-2" target="Isp8MFnUQnU3AqFY6UnY-10">
          <mxGeometry relative="1" as="geometry" />
        </mxCell>
        <mxCell id="Isp8MFnUQnU3AqFY6UnY-2" value="&lt;font style=&quot;font-size: 14px;&quot;&gt;Empresa&lt;/font&gt;" style="rounded=0;whiteSpace=wrap;html=1;" vertex="1" parent="1">
          <mxGeometry x="540" y="220" width="124" height="60" as="geometry" />
        </mxCell>
        <mxCell id="Isp8MFnUQnU3AqFY6UnY-3" style="edgeStyle=orthogonalEdgeStyle;rounded=0;orthogonalLoop=1;jettySize=auto;html=1;endArrow=none;endFill=0;" edge="1" parent="1" target="Isp8MFnUQnU3AqFY6UnY-10">
          <mxGeometry relative="1" as="geometry">
            <mxPoint x="580" y="510" as="sourcePoint" />
          </mxGeometry>
        </mxCell>
        <mxCell id="Isp8MFnUQnU3AqFY6UnY-4" style="edgeStyle=orthogonalEdgeStyle;rounded=0;orthogonalLoop=1;jettySize=auto;html=1;entryX=1;entryY=0.5;entryDx=0;entryDy=0;endArrow=none;endFill=0;" edge="1" parent="1" source="Isp8MFnUQnU3AqFY6UnY-7" target="Isp8MFnUQnU3AqFY6UnY-14">
          <mxGeometry relative="1" as="geometry" />
        </mxCell>
        <mxCell id="Isp8MFnUQnU3AqFY6UnY-5" style="edgeStyle=orthogonalEdgeStyle;rounded=0;orthogonalLoop=1;jettySize=auto;html=1;endArrow=none;endFill=0;" edge="1" parent="1" source="Isp8MFnUQnU3AqFY6UnY-7" target="Isp8MFnUQnU3AqFY6UnY-9">
          <mxGeometry relative="1" as="geometry" />
        </mxCell>
        <mxCell id="Isp8MFnUQnU3AqFY6UnY-6" style="edgeStyle=orthogonalEdgeStyle;rounded=0;orthogonalLoop=1;jettySize=auto;html=1;endArrow=none;endFill=0;" edge="1" parent="1" source="Isp8MFnUQnU3AqFY6UnY-7" target="Isp8MFnUQnU3AqFY6UnY-20">
          <mxGeometry relative="1" as="geometry" />
        </mxCell>
        <mxCell id="Isp8MFnUQnU3AqFY6UnY-7" value="&lt;font style=&quot;font-size: 14px;&quot;&gt;Veiculo&lt;/font&gt;" style="rounded=0;whiteSpace=wrap;html=1;" vertex="1" parent="1">
          <mxGeometry x="540" y="488" width="124" height="60" as="geometry" />
        </mxCell>
        <mxCell id="Isp8MFnUQnU3AqFY6UnY-8" value="&lt;font style=&quot;font-size: 14px;&quot;&gt;1&lt;/font&gt;" style="text;html=1;align=center;verticalAlign=middle;resizable=0;points=[];autosize=1;strokeColor=none;fillColor=none;" vertex="1" parent="1">
          <mxGeometry x="605" y="280" width="30" height="30" as="geometry" />
        </mxCell>
        <mxCell id="Isp8MFnUQnU3AqFY6UnY-9" value="&lt;font style=&quot;font-size: 14px;&quot;&gt;Placa&lt;/font&gt;" style="ellipse;whiteSpace=wrap;html=1;" vertex="1" parent="1">
          <mxGeometry x="717" y="504" width="110" height="28" as="geometry" />
        </mxCell>
        <mxCell id="Isp8MFnUQnU3AqFY6UnY-10" value="&lt;font style=&quot;font-size: 14px;&quot;&gt;Possui&lt;/font&gt;" style="rhombus;whiteSpace=wrap;html=1;" vertex="1" parent="1">
          <mxGeometry x="562" y="340" width="80" height="80" as="geometry" />
        </mxCell>
        <mxCell id="Isp8MFnUQnU3AqFY6UnY-11" value="&lt;font style=&quot;font-size: 14px;&quot;&gt;N&lt;/font&gt;" style="text;html=1;align=center;verticalAlign=middle;resizable=0;points=[];autosize=1;strokeColor=none;fillColor=none;" vertex="1" parent="1">
          <mxGeometry x="605" y="458" width="30" height="30" as="geometry" />
        </mxCell>
        <mxCell id="Isp8MFnUQnU3AqFY6UnY-12" style="edgeStyle=orthogonalEdgeStyle;rounded=0;orthogonalLoop=1;jettySize=auto;html=1;endArrow=none;endFill=0;" edge="1" parent="1" source="Isp8MFnUQnU3AqFY6UnY-13" target="Isp8MFnUQnU3AqFY6UnY-33">
          <mxGeometry relative="1" as="geometry" />
        </mxCell>
        <mxCell id="Isp8MFnUQnU3AqFY6UnY-13" value="&lt;font style=&quot;font-size: 14px;&quot;&gt;Cliente&lt;/font&gt;" style="rounded=0;whiteSpace=wrap;html=1;" vertex="1" parent="1">
          <mxGeometry x="55" y="602" width="120" height="60" as="geometry" />
        </mxCell>
        <mxCell id="Isp8MFnUQnU3AqFY6UnY-14" value="&lt;font style=&quot;font-size: 14px;&quot;&gt;Possui&lt;/font&gt;" style="rhombus;whiteSpace=wrap;html=1;" vertex="1" parent="1">
          <mxGeometry x="410" y="483" width="72.73" height="70" as="geometry" />
        </mxCell>
        <mxCell id="Isp8MFnUQnU3AqFY6UnY-15" value="&lt;font style=&quot;font-size: 14px;&quot;&gt;1&lt;/font&gt;" style="text;html=1;align=center;verticalAlign=middle;resizable=0;points=[];autosize=1;strokeColor=none;fillColor=none;" vertex="1" parent="1">
          <mxGeometry x="515" y="518" width="30" height="30" as="geometry" />
        </mxCell>
        <mxCell id="Isp8MFnUQnU3AqFY6UnY-16" style="edgeStyle=orthogonalEdgeStyle;rounded=0;orthogonalLoop=1;jettySize=auto;html=1;endArrow=none;endFill=0;" edge="1" parent="1" target="Isp8MFnUQnU3AqFY6UnY-13">
          <mxGeometry relative="1" as="geometry">
            <mxPoint x="55" y="764" as="sourcePoint" />
          </mxGeometry>
        </mxCell>
        <mxCell id="Isp8MFnUQnU3AqFY6UnY-17" value="&lt;font style=&quot;font-size: 14px;&quot;&gt;Nome&lt;/font&gt;" style="ellipse;whiteSpace=wrap;html=1;" vertex="1" parent="1">
          <mxGeometry y="760" width="100" height="28" as="geometry" />
        </mxCell>
        <mxCell id="Isp8MFnUQnU3AqFY6UnY-18" style="edgeStyle=orthogonalEdgeStyle;rounded=0;orthogonalLoop=1;jettySize=auto;html=1;endArrow=none;endFill=0;" edge="1" parent="1" target="Isp8MFnUQnU3AqFY6UnY-13">
          <mxGeometry relative="1" as="geometry">
            <mxPoint x="175" y="764" as="sourcePoint" />
          </mxGeometry>
        </mxCell>
        <mxCell id="Isp8MFnUQnU3AqFY6UnY-19" value="&lt;font style=&quot;font-size: 14px;&quot;&gt;CPF&lt;/font&gt;" style="ellipse;whiteSpace=wrap;html=1;" vertex="1" parent="1">
          <mxGeometry x="124" y="760" width="100" height="28" as="geometry" />
        </mxCell>
        <mxCell id="Isp8MFnUQnU3AqFY6UnY-20" value="&lt;font style=&quot;font-size: 14px;&quot;&gt;Possui&lt;/font&gt;" style="rhombus;whiteSpace=wrap;html=1;" vertex="1" parent="1">
          <mxGeometry x="565.64" y="590" width="72.73" height="70" as="geometry" />
        </mxCell>
        <mxCell id="Isp8MFnUQnU3AqFY6UnY-21" style="edgeStyle=orthogonalEdgeStyle;rounded=0;orthogonalLoop=1;jettySize=auto;html=1;entryX=0.5;entryY=1;entryDx=0;entryDy=0;endArrow=none;endFill=0;" edge="1" parent="1" source="Isp8MFnUQnU3AqFY6UnY-22" target="Isp8MFnUQnU3AqFY6UnY-20">
          <mxGeometry relative="1" as="geometry" />
        </mxCell>
        <mxCell id="Isp8MFnUQnU3AqFY6UnY-22" value="&lt;font style=&quot;font-size: 14px;&quot;&gt;Marca&lt;/font&gt;" style="rounded=0;whiteSpace=wrap;html=1;" vertex="1" parent="1">
          <mxGeometry x="460" y="700" width="124" height="60" as="geometry" />
        </mxCell>
        <mxCell id="Isp8MFnUQnU3AqFY6UnY-23" style="edgeStyle=orthogonalEdgeStyle;rounded=0;orthogonalLoop=1;jettySize=auto;html=1;endArrow=none;endFill=0;" edge="1" parent="1" source="Isp8MFnUQnU3AqFY6UnY-24" target="Isp8MFnUQnU3AqFY6UnY-20">
          <mxGeometry relative="1" as="geometry" />
        </mxCell>
        <mxCell id="Isp8MFnUQnU3AqFY6UnY-24" value="&lt;font style=&quot;font-size: 14px;&quot;&gt;Modelo&lt;/font&gt;" style="rounded=0;whiteSpace=wrap;html=1;" vertex="1" parent="1">
          <mxGeometry x="630" y="700" width="124" height="60" as="geometry" />
        </mxCell>
        <mxCell id="Isp8MFnUQnU3AqFY6UnY-25" value="N" style="text;html=1;align=center;verticalAlign=middle;resizable=0;points=[];autosize=1;strokeColor=none;fillColor=none;" vertex="1" parent="1">
          <mxGeometry x="605" y="548" width="30" height="30" as="geometry" />
        </mxCell>
        <mxCell id="Isp8MFnUQnU3AqFY6UnY-26" value="N" style="text;html=1;align=center;verticalAlign=middle;resizable=0;points=[];autosize=1;strokeColor=none;fillColor=none;" vertex="1" parent="1">
          <mxGeometry x="565" y="548" width="30" height="30" as="geometry" />
        </mxCell>
        <mxCell id="Isp8MFnUQnU3AqFY6UnY-27" value="1" style="text;html=1;align=center;verticalAlign=middle;resizable=0;points=[];autosize=1;strokeColor=none;fillColor=none;" vertex="1" parent="1">
          <mxGeometry x="695" y="668" width="30" height="30" as="geometry" />
        </mxCell>
        <mxCell id="Isp8MFnUQnU3AqFY6UnY-28" value="1" style="text;html=1;align=center;verticalAlign=middle;resizable=0;points=[];autosize=1;strokeColor=none;fillColor=none;" vertex="1" parent="1">
          <mxGeometry x="495" y="668" width="30" height="30" as="geometry" />
        </mxCell>
        <mxCell id="Isp8MFnUQnU3AqFY6UnY-29" style="edgeStyle=orthogonalEdgeStyle;rounded=0;orthogonalLoop=1;jettySize=auto;html=1;endArrow=none;endFill=0;" edge="1" parent="1" source="Isp8MFnUQnU3AqFY6UnY-31" target="Isp8MFnUQnU3AqFY6UnY-14">
          <mxGeometry relative="1" as="geometry" />
        </mxCell>
        <mxCell id="Isp8MFnUQnU3AqFY6UnY-30" value="" style="edgeStyle=orthogonalEdgeStyle;rounded=0;orthogonalLoop=1;jettySize=auto;html=1;" edge="1" parent="1" source="Isp8MFnUQnU3AqFY6UnY-31" target="Isp8MFnUQnU3AqFY6UnY-33">
          <mxGeometry relative="1" as="geometry" />
        </mxCell>
        <mxCell id="Isp8MFnUQnU3AqFY6UnY-31" value="&lt;font style=&quot;font-size: 14px;&quot;&gt;Aluguel&lt;/font&gt;" style="rounded=0;whiteSpace=wrap;html=1;" vertex="1" parent="1">
          <mxGeometry x="210" y="488" width="124" height="60" as="geometry" />
        </mxCell>
        <mxCell id="Isp8MFnUQnU3AqFY6UnY-32" style="edgeStyle=orthogonalEdgeStyle;rounded=0;orthogonalLoop=1;jettySize=auto;html=1;entryX=0;entryY=0.5;entryDx=0;entryDy=0;endArrow=none;endFill=0;" edge="1" parent="1" source="Isp8MFnUQnU3AqFY6UnY-33" target="Isp8MFnUQnU3AqFY6UnY-31">
          <mxGeometry relative="1" as="geometry" />
        </mxCell>
        <mxCell id="Isp8MFnUQnU3AqFY6UnY-33" value="&lt;font style=&quot;font-size: 14px;&quot;&gt;Possui&lt;/font&gt;" style="rhombus;whiteSpace=wrap;html=1;" vertex="1" parent="1">
          <mxGeometry x="78.64" y="483" width="72.73" height="70" as="geometry" />
        </mxCell>
        <mxCell id="Isp8MFnUQnU3AqFY6UnY-34" value="N" style="text;html=1;align=center;verticalAlign=middle;resizable=0;points=[];autosize=1;strokeColor=none;fillColor=none;" vertex="1" parent="1">
          <mxGeometry x="180" y="518" width="30" height="30" as="geometry" />
        </mxCell>
        <mxCell id="Isp8MFnUQnU3AqFY6UnY-35" value="1" style="text;html=1;align=center;verticalAlign=middle;resizable=0;points=[];autosize=1;strokeColor=none;fillColor=none;" vertex="1" parent="1">
          <mxGeometry x="115" y="578" width="30" height="30" as="geometry" />
        </mxCell>
        <mxCell id="Isp8MFnUQnU3AqFY6UnY-36" value="N" style="text;html=1;align=center;verticalAlign=middle;resizable=0;points=[];autosize=1;strokeColor=none;fillColor=none;" vertex="1" parent="1">
          <mxGeometry x="334" y="518" width="30" height="30" as="geometry" />
        </mxCell>
        <mxCell id="Isp8MFnUQnU3AqFY6UnY-38" style="edgeStyle=orthogonalEdgeStyle;rounded=0;orthogonalLoop=1;jettySize=auto;html=1;exitX=0.5;exitY=1;exitDx=0;exitDy=0;" edge="1" parent="1" source="Isp8MFnUQnU3AqFY6UnY-19" target="Isp8MFnUQnU3AqFY6UnY-19">
          <mxGeometry relative="1" as="geometry" />
        </mxCell>
      </root>
    </mxGraphModel>
  </diagram>
  <diagram id="FEvqzgx9eRjCUxLKH7Tt" name="1.3-exercicio-pclinics">
    <mxGraphModel dx="1820" dy="1012" grid="1" gridSize="10" guides="1" tooltips="1" connect="1" arrows="1" fold="1" page="1" pageScale="1" pageWidth="827" pageHeight="1169" math="0" shadow="0">
      <root>
        <mxCell id="0" />
        <mxCell id="1" parent="0" />
        <mxCell id="IwLrrR9SQKo74UJrqzaJ-1" style="edgeStyle=orthogonalEdgeStyle;rounded=0;orthogonalLoop=1;jettySize=auto;html=1;endArrow=none;endFill=0;" edge="1" parent="1" source="IwLrrR9SQKo74UJrqzaJ-2" target="IwLrrR9SQKo74UJrqzaJ-6">
          <mxGeometry relative="1" as="geometry" />
        </mxCell>
        <mxCell id="IwLrrR9SQKo74UJrqzaJ-2" value="Clinica" style="whiteSpace=wrap;html=1;" vertex="1" parent="1">
          <mxGeometry x="60" y="230" width="120" height="60" as="geometry" />
        </mxCell>
        <mxCell id="IwLrrR9SQKo74UJrqzaJ-3" style="edgeStyle=orthogonalEdgeStyle;rounded=0;orthogonalLoop=1;jettySize=auto;html=1;endArrow=none;endFill=0;" edge="1" parent="1" source="IwLrrR9SQKo74UJrqzaJ-4" target="IwLrrR9SQKo74UJrqzaJ-2">
          <mxGeometry relative="1" as="geometry" />
        </mxCell>
        <mxCell id="IwLrrR9SQKo74UJrqzaJ-4" value="Endereco" style="ellipse;whiteSpace=wrap;html=1;" vertex="1" parent="1">
          <mxGeometry x="270" y="245" width="100" height="30" as="geometry" />
        </mxCell>
        <mxCell id="IwLrrR9SQKo74UJrqzaJ-5" style="edgeStyle=orthogonalEdgeStyle;rounded=0;orthogonalLoop=1;jettySize=auto;html=1;endArrow=none;endFill=0;" edge="1" parent="1" source="IwLrrR9SQKo74UJrqzaJ-6" target="IwLrrR9SQKo74UJrqzaJ-8">
          <mxGeometry relative="1" as="geometry" />
        </mxCell>
        <mxCell id="IwLrrR9SQKo74UJrqzaJ-6" value="Possui" style="rhombus;whiteSpace=wrap;html=1;" vertex="1" parent="1">
          <mxGeometry x="85" y="340" width="70" height="70" as="geometry" />
        </mxCell>
        <mxCell id="IwLrrR9SQKo74UJrqzaJ-7" style="edgeStyle=orthogonalEdgeStyle;rounded=0;orthogonalLoop=1;jettySize=auto;html=1;endArrow=none;endFill=0;" edge="1" parent="1" source="IwLrrR9SQKo74UJrqzaJ-8" target="IwLrrR9SQKo74UJrqzaJ-10">
          <mxGeometry relative="1" as="geometry" />
        </mxCell>
        <mxCell id="IwLrrR9SQKo74UJrqzaJ-8" value="Veterinario" style="whiteSpace=wrap;html=1;" vertex="1" parent="1">
          <mxGeometry x="60" y="460" width="120" height="60" as="geometry" />
        </mxCell>
        <mxCell id="IwLrrR9SQKo74UJrqzaJ-9" style="edgeStyle=orthogonalEdgeStyle;rounded=0;orthogonalLoop=1;jettySize=auto;html=1;entryX=0.5;entryY=0;entryDx=0;entryDy=0;endArrow=none;endFill=0;" edge="1" parent="1" source="IwLrrR9SQKo74UJrqzaJ-10" target="IwLrrR9SQKo74UJrqzaJ-12">
          <mxGeometry relative="1" as="geometry" />
        </mxCell>
        <mxCell id="IwLrrR9SQKo74UJrqzaJ-10" value="Possui" style="rhombus;whiteSpace=wrap;html=1;" vertex="1" parent="1">
          <mxGeometry x="85" y="580" width="70" height="70" as="geometry" />
        </mxCell>
        <mxCell id="IwLrrR9SQKo74UJrqzaJ-11" style="edgeStyle=orthogonalEdgeStyle;rounded=0;orthogonalLoop=1;jettySize=auto;html=1;endArrow=none;endFill=0;" edge="1" parent="1" source="IwLrrR9SQKo74UJrqzaJ-12" target="IwLrrR9SQKo74UJrqzaJ-15">
          <mxGeometry relative="1" as="geometry" />
        </mxCell>
        <mxCell id="IwLrrR9SQKo74UJrqzaJ-12" value="Atendimento" style="whiteSpace=wrap;html=1;" vertex="1" parent="1">
          <mxGeometry x="60" y="705" width="120" height="60" as="geometry" />
        </mxCell>
        <mxCell id="IwLrrR9SQKo74UJrqzaJ-13" style="edgeStyle=orthogonalEdgeStyle;rounded=0;orthogonalLoop=1;jettySize=auto;html=1;endArrow=none;endFill=0;" edge="1" parent="1" source="IwLrrR9SQKo74UJrqzaJ-15" target="IwLrrR9SQKo74UJrqzaJ-19">
          <mxGeometry relative="1" as="geometry" />
        </mxCell>
        <mxCell id="IwLrrR9SQKo74UJrqzaJ-14" value="1" style="edgeLabel;html=1;align=center;verticalAlign=middle;resizable=0;points=[];" vertex="1" connectable="0" parent="IwLrrR9SQKo74UJrqzaJ-13">
          <mxGeometry x="0.59" y="-5" relative="1" as="geometry">
            <mxPoint y="10" as="offset" />
          </mxGeometry>
        </mxCell>
        <mxCell id="IwLrrR9SQKo74UJrqzaJ-15" value="Possui" style="rhombus;whiteSpace=wrap;html=1;" vertex="1" parent="1">
          <mxGeometry x="250" y="700" width="70" height="70" as="geometry" />
        </mxCell>
        <mxCell id="IwLrrR9SQKo74UJrqzaJ-16" style="edgeStyle=orthogonalEdgeStyle;rounded=0;orthogonalLoop=1;jettySize=auto;html=1;endArrow=none;endFill=0;" edge="1" parent="1" source="IwLrrR9SQKo74UJrqzaJ-19" target="IwLrrR9SQKo74UJrqzaJ-23">
          <mxGeometry relative="1" as="geometry" />
        </mxCell>
        <mxCell id="IwLrrR9SQKo74UJrqzaJ-17" style="edgeStyle=orthogonalEdgeStyle;rounded=0;orthogonalLoop=1;jettySize=auto;html=1;endArrow=none;endFill=0;" edge="1" parent="1" source="IwLrrR9SQKo74UJrqzaJ-19" target="IwLrrR9SQKo74UJrqzaJ-25">
          <mxGeometry relative="1" as="geometry" />
        </mxCell>
        <mxCell id="IwLrrR9SQKo74UJrqzaJ-18" style="edgeStyle=orthogonalEdgeStyle;rounded=0;orthogonalLoop=1;jettySize=auto;html=1;endArrow=none;endFill=0;" edge="1" parent="1" source="IwLrrR9SQKo74UJrqzaJ-19" target="IwLrrR9SQKo74UJrqzaJ-21">
          <mxGeometry relative="1" as="geometry" />
        </mxCell>
        <mxCell id="IwLrrR9SQKo74UJrqzaJ-19" value="Pet" style="whiteSpace=wrap;html=1;" vertex="1" parent="1">
          <mxGeometry x="370" y="705" width="120" height="60" as="geometry" />
        </mxCell>
        <mxCell id="IwLrrR9SQKo74UJrqzaJ-20" style="edgeStyle=orthogonalEdgeStyle;rounded=0;orthogonalLoop=1;jettySize=auto;html=1;endArrow=none;endFill=0;" edge="1" parent="1" source="IwLrrR9SQKo74UJrqzaJ-21" target="IwLrrR9SQKo74UJrqzaJ-26">
          <mxGeometry relative="1" as="geometry" />
        </mxCell>
        <mxCell id="IwLrrR9SQKo74UJrqzaJ-21" value="Possui" style="rhombus;whiteSpace=wrap;html=1;" vertex="1" parent="1">
          <mxGeometry x="395" y="800" width="70" height="70" as="geometry" />
        </mxCell>
        <mxCell id="IwLrrR9SQKo74UJrqzaJ-22" style="edgeStyle=orthogonalEdgeStyle;rounded=0;orthogonalLoop=1;jettySize=auto;html=1;endArrow=none;endFill=0;" edge="1" parent="1" source="IwLrrR9SQKo74UJrqzaJ-23" target="IwLrrR9SQKo74UJrqzaJ-27">
          <mxGeometry relative="1" as="geometry" />
        </mxCell>
        <mxCell id="IwLrrR9SQKo74UJrqzaJ-23" value="Possui" style="rhombus;whiteSpace=wrap;html=1;" vertex="1" parent="1">
          <mxGeometry x="550" y="700" width="70" height="70" as="geometry" />
        </mxCell>
        <mxCell id="IwLrrR9SQKo74UJrqzaJ-24" style="edgeStyle=orthogonalEdgeStyle;rounded=0;orthogonalLoop=1;jettySize=auto;html=1;endArrow=none;endFill=0;" edge="1" parent="1" source="IwLrrR9SQKo74UJrqzaJ-25" target="IwLrrR9SQKo74UJrqzaJ-28">
          <mxGeometry relative="1" as="geometry" />
        </mxCell>
        <mxCell id="IwLrrR9SQKo74UJrqzaJ-25" value="Possui" style="rhombus;whiteSpace=wrap;html=1;" vertex="1" parent="1">
          <mxGeometry x="395" y="590" width="70" height="70" as="geometry" />
        </mxCell>
        <mxCell id="IwLrrR9SQKo74UJrqzaJ-26" value="Dono" style="whiteSpace=wrap;html=1;" vertex="1" parent="1">
          <mxGeometry x="370" y="900" width="120" height="60" as="geometry" />
        </mxCell>
        <mxCell id="IwLrrR9SQKo74UJrqzaJ-27" value="TipoPet" style="whiteSpace=wrap;html=1;" vertex="1" parent="1">
          <mxGeometry x="670" y="705" width="120" height="60" as="geometry" />
        </mxCell>
        <mxCell id="IwLrrR9SQKo74UJrqzaJ-28" value="Raça" style="whiteSpace=wrap;html=1;" vertex="1" parent="1">
          <mxGeometry x="370" y="490" width="120" height="60" as="geometry" />
        </mxCell>
        <mxCell id="IwLrrR9SQKo74UJrqzaJ-29" value="1" style="text;html=1;align=center;verticalAlign=middle;resizable=0;points=[];autosize=1;strokeColor=none;fillColor=none;" vertex="1" parent="1">
          <mxGeometry x="125" y="288" width="30" height="30" as="geometry" />
        </mxCell>
        <mxCell id="IwLrrR9SQKo74UJrqzaJ-30" value="N" style="text;html=1;align=center;verticalAlign=middle;resizable=0;points=[];autosize=1;strokeColor=none;fillColor=none;" vertex="1" parent="1">
          <mxGeometry x="125" y="428" width="30" height="30" as="geometry" />
        </mxCell>
        <mxCell id="IwLrrR9SQKo74UJrqzaJ-31" value="N" style="text;html=1;align=center;verticalAlign=middle;resizable=0;points=[];autosize=1;strokeColor=none;fillColor=none;" vertex="1" parent="1">
          <mxGeometry x="175" y="738" width="30" height="30" as="geometry" />
        </mxCell>
        <mxCell id="IwLrrR9SQKo74UJrqzaJ-32" value="N" style="text;html=1;align=center;verticalAlign=middle;resizable=0;points=[];autosize=1;strokeColor=none;fillColor=none;" vertex="1" parent="1">
          <mxGeometry x="435" y="678" width="30" height="30" as="geometry" />
        </mxCell>
        <mxCell id="IwLrrR9SQKo74UJrqzaJ-33" value="N" style="text;html=1;align=center;verticalAlign=middle;resizable=0;points=[];autosize=1;strokeColor=none;fillColor=none;" vertex="1" parent="1">
          <mxGeometry x="495" y="738" width="30" height="30" as="geometry" />
        </mxCell>
        <mxCell id="IwLrrR9SQKo74UJrqzaJ-34" value="N" style="text;html=1;align=center;verticalAlign=middle;resizable=0;points=[];autosize=1;strokeColor=none;fillColor=none;" vertex="1" parent="1">
          <mxGeometry x="435" y="768" width="30" height="30" as="geometry" />
        </mxCell>
        <mxCell id="IwLrrR9SQKo74UJrqzaJ-35" value="1" style="text;html=1;align=center;verticalAlign=middle;resizable=0;points=[];autosize=1;strokeColor=none;fillColor=none;" vertex="1" parent="1">
          <mxGeometry x="435" y="548" width="30" height="30" as="geometry" />
        </mxCell>
        <mxCell id="IwLrrR9SQKo74UJrqzaJ-36" value="1" style="text;html=1;align=center;verticalAlign=middle;resizable=0;points=[];autosize=1;strokeColor=none;fillColor=none;" vertex="1" parent="1">
          <mxGeometry x="635" y="738" width="30" height="30" as="geometry" />
        </mxCell>
        <mxCell id="IwLrrR9SQKo74UJrqzaJ-37" value="1" style="text;html=1;align=center;verticalAlign=middle;resizable=0;points=[];autosize=1;strokeColor=none;fillColor=none;" vertex="1" parent="1">
          <mxGeometry x="435" y="868" width="30" height="30" as="geometry" />
        </mxCell>
        <mxCell id="IwLrrR9SQKo74UJrqzaJ-38" value="N" style="text;html=1;align=center;verticalAlign=middle;resizable=0;points=[];autosize=1;strokeColor=none;fillColor=none;" vertex="1" parent="1">
          <mxGeometry x="125" y="668" width="30" height="30" as="geometry" />
        </mxCell>
        <mxCell id="IwLrrR9SQKo74UJrqzaJ-39" value="1" style="text;html=1;align=center;verticalAlign=middle;resizable=0;points=[];autosize=1;strokeColor=none;fillColor=none;" vertex="1" parent="1">
          <mxGeometry x="125" y="518" width="30" height="30" as="geometry" />
        </mxCell>
        <mxCell id="IwLrrR9SQKo74UJrqzaJ-40" value="Uma clínica veterinária deseja cadastrar os pets que são atendidos em seu local.&#xa;&#xa;&#xa;- a clínica contém um endereço;&#xa;- os pets deverão ter nome, data de nascimento, tipo de pet;&#xa;- os pets deverão ter raça;&#xa;- os pets deverão ter donos;&#xa;- a clínica deseja cadastrar seus veterinários e todo atendimento de pet será feito por um veterinário;" style="text;whiteSpace=wrap;" vertex="1" parent="1">
          <mxGeometry x="134" y="30" width="560" height="150" as="geometry" />
        </mxCell>
      </root>
    </mxGraphModel>
  </diagram>
</mxfile>
